/* XPM */
static const char *Y29sbGVjdGlibGU_[] = {
/* columns rows colors chars-per-pixel */
"32 32 129 2 ",
"   c #073D17",
".  c #25192F",
"X  c #2C1B2F",
"o  c #291C2E",
"O  c #301A30",
"+  c #341D30",
"@  c #173D28",
"#  c #32232C",
"$  c #3B232E",
"%  c #262433",
"&  c #282633",
"*  c #2F2C32",
"=  c #2A2F34",
"-  c #322636",
";  c #273B3C",
":  c #373532",
">  c #323E36",
",  c #343F37",
"<  c #412A2F",
"1  c #58392F",
"2  c #4D3C35",
"3  c #69392C",
"4  c #642C33",
"5  c #35483F",
"6  c #34583D",
"7  c #345F3F",
"8  c #3B5A3D",
"9  c #0A6323",
"0  c #36653F",
"q  c #3D653F",
"w  c #514C2C",
"e  c #4A5236",
"r  c #595536",
"t  c #694B20",
"y  c #7E4528",
"u  c #72492F",
"i  c #7F512F",
"p  c #77403C",
"a  c #46633A",
"s  c #536038",
"d  c #7F673C",
"f  c #294E44",
"g  c #2E5240",
"h  c #2F5848",
"j  c #386D42",
"k  c #3B7643",
"l  c #3C7E46",
"z  c #2C7152",
"x  c #4B4151",
"c  c #5B525F",
"v  c #5E6052",
"b  c #95393B",
"n  c #80442C",
"m  c #954E2B",
"M  c #8C5930",
"N  c #B24339",
"B  c #B54539",
"V  c #906132",
"C  c #986130",
"Z  c #C55031",
"A  c #E95636",
"S  c #C46429",
"D  c #DB6F29",
"F  c #DD7329",
"G  c #DE742A",
"H  c #E17A2B",
"J  c #EB673E",
"K  c #DB3848",
"L  c #E33D43",
"P  c #E23548",
"I  c #8D694E",
"U  c #BF6C4E",
"Y  c #CE5D43",
"T  c #3C8145",
"R  c #3E8948",
"E  c #3A8256",
"W  c #36925B",
"Q  c #34955F",
"!  c #22B14D",
"~  c #3AB352",
"^  c #2F9460",
"/  c #4EAA5A",
"(  c #6CBC55",
")  c #77C272",
"_  c #A4A82A",
"`  c #D29E0C",
"'  c #D8B212",
"]  c #E5B40C",
"[  c #FDB604",
"{  c #FEBE14",
"}  c #DE882A",
"|  c #EB8B2E",
" . c #EC8D2E",
".. c #F79C21",
"X. c #F28838",
"o. c #EC9D3A",
"O. c #F19730",
"+. c #F29830",
"@. c #F39C32",
"#. c #F39E34",
"$. c #F4A335",
"%. c #F5A536",
"&. c #F6AA39",
"*. c #F6AC3A",
"=. c #F7B03C",
"-. c #A58947",
";. c #F9B940",
":. c #F9BC42",
">. c #95C444",
",. c #9ED346",
"<. c #B2F74D",
"1. c #C5D448",
"2. c #E8C24B",
"3. c #FAC044",
"4. c #FCC848",
"5. c #FDCD4A",
"6. c #FED24D",
"7. c #FFD64F",
"8. c #F1CC56",
"9. c #FFD652",
"0. c #FFDA5F",
"q. c #FFE077",
"w. c #9F9695",
"e. c #9F999C",
"r. c #ADA394",
"t. c #CFACA2",
"y. c #F1DE9E",
"u. c #C8C4C1",
"i. c #FFF4C9",
/* pixels */
"R R R R R R R R R R R R R R R R R R R R R R R R R R R R R R R R ",
"R R R R R R R R R R R R R R R R R R R R R R R R R R R R R R R R ",
"R R R R R R R R R R R R R R R R R R R R R R R R R R R R R R R R ",
"R R R R R R R R R R R R R R R R R R R R R R R R R R R R R R R R ",
"R R R R R ! R R R ! ! ! R R R R R R R R R R R R R R R R R R R R ",
"R R R R R ! ! R R ! ! ! R R R R R R R R R R R R R R R R R R R R ",
"R R R R R   ! R ! ! !   R R R R R R R R R R R R R R R R R R R R ",
"R R R R R R   R ! !   R R R R R R R R R R R R R R R R R R R R R ",
"R R R R R R R R !   R R R R R R 0 v a l j R R R R R R R R R R R ",
"R R R R R R R R R R R R R R T > <.^ Q 5 E T * k R R R R R R R R ",
"R R R R R R R R R R R R T = ,.>.t.' } ..J ` / : = R R R R R R R ",
"R R R R R R R R R R R R - -._ X.) z y e.e.w.C f ( g R R R R R R ",
"R R R R R R R R R R q e , L A Z c r.i.6.6.7.7.&.1 ; R R R R R R ",
"R R R R R R R R R R s . # L ] u.7.7.;.7.7.7.7.7.7.u R R R R R R ",
"R R R R R R R R R 0 V 7.{ 1.% q.7.7.5.7.=.6.6.7.7.o.@ R R R R R ",
"R R R R R R R R R r I [ K h y.7.3.7.4.7.6.7.7.7.;.=.w R R R R R ",
"R R R R R R R R R i t P ~ x 0.7.3.7.7.7.7.7.7.7.7.@.M R R R R R ",
"R R R R R R R R R i o O W 8.7.7.7.;.7.7.&.7.$.7.7.=.M 9 R R R R ",
"R R R R R R R R R < U B - 9.6.6.:.7.5.7.5.7.7.@.*.+.n   9 R R R ",
"R R R R R R R R R p Y b d 3.7.$.7.*.&.%.:.:.@.| | H n   9 R R R ",
"R R R R R R R R   4 N 2 6.+.+.+.O.O.O.H  .S S S & & 6 9 R R R R ",
"R R R R R R R R   X + 2.#.O.G F F D m $ $             9 R R R R ",
"R R R R R R R 9     u u 3 3 8 7 7 7             9   9 R R R R R ",
"R R R R R R R 9 9                           9 9   9 9 R R R R R ",
"R R R R R R R 9 9 9 9 9 9 9 9 9 9 9 9 9 9 9 9 9 9 9 9 R R R R R ",
"R R R R R R R R R R R R R R R R R R R R R R R R R R R R R R R R ",
"R R R R R R R R R R R R R R R R R R R R R R R R R R R R R R R R ",
"R R R R R R R R R R R R R R R R R R R R R R R R R R R R R R R R ",
"R R R R R R R R R R R R R R R R R R R R R R R R R R R R R R R R ",
"R R R R R R R R R R R R R R R R R R R R R R R R R R R R R R R R ",
"R R R R R R R R R R R R R R R R R R R R R R R R R R R R R R R R ",
"R R R R R R R R R R R R R R R R R R R R R R R R R R R R R R R R "
};
