/* XPM */
static const char *cGl4aWwtZnJhbWUtMCUyODEzJTI5[] = {
/* columns rows colors chars-per-pixel */
"32 32 5 1 ",
"  c #073D17",
". c #160C20",
"X c #0A6323",
"o c #22B14C",
"O c white",
/* pixels */
"oooooooooooooooooooooooooooooooo",
"oooooooooooooooooooooooooooooooo",
"oooooooooooooooooooooooooooooooo",
"oooooooooooooooooooooooooooooooo",
"oooooooooooooooooooooooooooooooo",
"ooooooooooooo.......oooooooooooo",
"oooooooooooo.OOOOOOO.ooooooooooo",
"ooooooooooo.OOOOOOOOO.oooooooooo",
"ooooooooooo.OOOOOOOOO.oooooooooo",
"ooooooooooo.OOOOOOOOO.oooooooooo",
"ooooooooooo.O..OOO..O.oooooooooo",
"ooooooooooo.O..OOO..O.oooooooooo",
"ooooooooooo.O..OOO..O.oooooooooo",
"ooooooooooo.OOOOOOOOO.oooooooooo",
"oooooooooooo.O.O.O.O.ooooooooooo",
"ooooooooooooo.......oooooooooooo",
"oooooooooooo..OOOOO..ooooooooooo",
"ooooooooooo.OOOOOOOOO.oooooooooo",
"ooooooooooo.OOOOOOOOO.oooooooooo",
"oooooooooooo..OOOOO..ooooooooooo",
"ooooooooooooo.OO.OO.oooooooooooo",
"ooooooooooo  .OO.OO.  oooooooooo",
"ooooooooooX  .OO.OO.  Xooooooooo",
"ooooooooooXX       X  Xooooooooo",
"oooooooooooXXXXXXXX  Xoooooooooo",
"oooooooooooooooooooooooooooooooo",
"oooooooooooooooooooooooooooooooo",
"oooooooooooooooooooooooooooooooo",
"oooooooooooooooooooooooooooooooo",
"oooooooooooooooooooooooooooooooo",
"oooooooooooooooooooooooooooooooo",
"oooooooooooooooooooooooooooooooo"
};
