/* XPM */
static const char *ZXhpdA__[] = {
/* columns rows colors chars-per-pixel */
"32 32 13 1 ",
"  c #073D17",
". c #5E302C",
"X c #412D35",
"o c #0A6323",
"O c #73423D",
"+ c #3D4764",
"@ c #8F5441",
"# c #B56F55",
"$ c #22B14D",
"% c #A8E61D",
"& c #C38874",
"* c #5B6985",
"= c #8A9AB1",
/* pixels */
"$$$$$$$$$$$$$$$$$$$$$$$$$$$$$$$$",
"$$$$$$$$$$$$$$$$$$$$$$$$$$$$$$$$",
"$$$$$$$$$$$$$$$$$$$$$$$$$$$$$$$$",
"$$$$$$$$$$$$$$$$$$$$$$$$$$$$$$$$",
"$$$$$$$$$$$$$$$$$$$$$$$$$$$$$$$$",
"$$$$$$$$$$$$$$$$$$$$$$$$$$$$$$$$",
"$$$$$$$$$$$$$$$$$$$$$$$$$$$$$$$$",
"$$$$$$$%$$$$$$$$$$$$$$$$$$$$$$$$",
"$%$$$$%%$XXXXXXXXXXXXXX$$$$$$$$$",
"$$%$$%%$X@@++@@@@@@++@@X$$$$$$$$",
"$$%$%%$$X##**######**##X$$$$$$$$",
"$$%%%$$$X&&==&&&&&&==&&X$$$$$$$$",
"$$%$$$$$X&&==&&&&&&==&&X$$$$$$$$",
"$$$$$$$$X##**######**##X$$$$$$$$",
"$$$$$$$$X@@**######**@@X$$$$$$$$",
"$$$$$$$$X@@++@@==@@++@@X$$$$$$$$",
"$$$$$$$$XXXXXXX=*XXXXXXX$$$$$$$$",
"$$$$$$$$$X@OOX.*+.XOO@Xo$$$$$$$$",
"$$$$$$$$$XOOOX.O.OXOOOX $$$$$$$$",
"$$$$$$$$$XOO@XOOOOX@OOXo$$$$$$$$",
"$$$$$$$$$X@@@X@@@@X@@@Xo$$$$$$$$",
"$$$$$$$$$ XXXXXXXXXXXX o$$$$$$$%",
"$$$$$$$%$o            oo$$$$$$$%",
"$$%$$$$%$$ooooooooooooo$$$$$$$$%",
"$$$%$$%$$$$$$$$$$$$$$$$$$$$$$$$%",
"$$$%$$%$$$$$$$$$$$$$$$$$$%$$$$%$",
"$$$$%%%$$$$$$$$$$$$$$$$$$%$$$$%$",
"$$$$$%%$$$$$$$$$$$$$$$$$$$%$$%$$",
"$$$$$$$$$$$$$$$$$$$$$$$$$$%$%$$$",
"$$$$$$$$$$$$$$$$$$$$$$$$$$$%%$$$",
"$$$$$$$$$$$$$$$$$$$$$$$$$$$%$$$$",
"$$$$$$$$$$$$$$$$$$$$$$$$$$$$$$$$"
};
