/* XPM */
static const char *Zmxvb3I_[] = {
/* columns rows colors chars-per-pixel */
"32 32 8 1 ",
"  c gray12",
". c #073D17",
"X c gray18",
"o c #0A6323",
"O c #22B14C",
"+ c #22B14D",
"@ c #546D8E",
"# c #6D86A6",
/* pixels */
"OOOOOOOOOOOOOOOOOOOOOOOOOOOOOOOO",
"OOOOOOOOOOOOOOOOOOOOOOOOOOOOOOOO",
"OOOOOOOOOOOOOOOOOOOOOOOOOOOOOOOO",
"OOOOOOOOOOOOOOOOOOOOOOOOOOOOOOOO",
"OOOOO+OOO+++OOOOOOOOOOOOOOOOOOOO",
"OOOOO++OO+++OOOOOOOOOOOOOOOOOOOO",
"OOOOO.+O+++.OOOOOOOOOOOOOOOOOOOO",
"OOOOOO.O++.OOOOOOOOOOOOOOOOOOOOO",
"OOOOOOOO+.OOOOOOOOOOOOOOOOOOOOOO",
"OOOOOOOOOOOOOOOOOOOOOOOOOOOOOOOO",
"OOOOOOOOOOOOOOOOOO      OOOOOOOO",
"OOOOOOOOOOOOOOOOO ###### OOOOOOO",
"OOOOOOOOOOOOOOOO ####@XXX OOOOOO",
"OOOOOOOOOOOOOOOO ###@XXXX OOOOOO",
"OOOOOOOOOOOOOO+++@@@@X++++oOOOOO",
"OOOOOOOOOOOOOOo+++@@X++++.oOOOOO",
"OOOOOOOOOOOOOOo.++.....+.oOOOOOO",
"OOOOOOOOOOOOOOOo..oooo..oOOOOOOO",
"OOOOOOOOOOOOOOOOoooOOOooOOOOOOOO",
"OOOOOOOOOOOOOOOOOOOOOOOOOOOOOOOO",
"OOOOOOOOOOOOOOOOOOOOOOOOOOOOOOOO",
"OOOOOOOOOOOOOOOOOOOOOOOOOOOOOOOO",
"OOOOOOOOOOOOOOOOOOOOOOOOOOOOOOOO",
"OOOOOOOOOOOOOOOOOOOOOOOOOOOOOOOO",
"OOOOOOOOOOOOOOOOOOOOOOOOOOOOOOOO",
"OOOOOOOOOOOOOOOOOOOOOOOOOOOOOOOO",
"OOOOOOOOOOOOOOOOOOOOOOOOOOOOOOOO",
"OOOOOOOOOOOOOOOOOOOOOOOOOOOOOOOO",
"OOOOOOOOOOOOOOOOOOOOOOOOOOOOOOOO",
"OOOOOOOOOOOOOOOOOOOOOOOOOOOOOOOO",
"OOOOOOOOOOOOOOOOOOOOOOOOOOOOOOOO",
"OOOOOOOOOOOOOOOOOOOOOOOOOOOOOOOO"
};
