/* XPM */
static const char *ZmFjZQ__[] = {
/* columns rows colors chars-per-pixel */
"32 32 14 1 ",
"  c #073D17",
". c #160C20",
"X c #5D302E",
"o c #0A6323",
"O c #1C4D4D",
"+ c #266E52",
"@ c #6F4846",
"# c #389550",
"$ c #22B14C",
"% c #D09D74",
"& c #186AA5",
"* c #2098D7",
"= c #F5C8A1",
"- c None",
/* pixels */
"$$$$$$$$$$$$$$$$$$$$$$$$$$$$$$$$",
"$$$$$$$$$$$$$$$$$$$$$$$$$$$$$$$$",
"$$$$$$$$$$$$$$$$$$$$$$$$$$$$$$$$",
"$$$$$$$$$$$$$$$$$$$$$$$$$$$$$$$$",
"$$$$$$$$$$$$$$$$$$$$$$$$$$$$$$$$",
"$$$$$$$$$$$$.......$$$$$$$$$$$$$",
"$$$$$$$$$$$.X@@X@@X.$$$$$$$$$$$$",
"$$$$$$$$$$.X@@@@@@@X.$$$$$$$$$$$",
"$$$$$$$$$$.@@@@X@@@@.$$$$$$$$$$$",
"$$$$$$$$$.X@@@XXX@@@X.$$$$$$$$$$",
"$$$$$$$$$.@@@XX.X@@@@.$$$$$$$$$$",
"$$$$$$$$$.@@@X.%.X@@@.$$$$$$$$$$",
"$$$$$$$$$.XX..%%%..XX.$$$$$$$$$$",
"$$$$$$$$$$..%.===.%..$$$$$$$$$$$",
"$$$$$$$$$$.%%.===.%%.$$$$$$$$$$$",
"$$$$$$$$$$$.=======.$$$$$$$$$$$$",
"$$$$$$$$$$$.O=====O.$$$$$$$$$$$$",
"$$$$$$$$$$$.O+##++O.$$$$$$$$$$$$",
"$$$$$$$$$$.==+###+==.$$$$$$$$$$$",
"$$$$$$$$$$.==++##+==.$$$$$$$$$$$",
"$$$$$$$$$$$.***&***.$$$$$$$$$$$$",
"$$$$$$$$$$o.**&.&**. $$$$$$$$$$$",
"$$$$$$$$$oo.XX. .XX.oo$$$$$$$$$$",
"$$$$$$$$$o            $$$$$$$$$$",
"$$$$$$$$$$oo oo  o oo$$$$$$$$$$$",
"$$$$$$$$$$$$$$$$o$$$$$$$$$$$$$$$",
"$$$$$$$$$$$$$$$$$$$$$$$$$$$$$$$$",
"$$$$$$$$$$$$$$$$$$$$$$$$$$$$$$$$",
"$$$$$$$$$$$$$$$$$$$$$$$$$$$$$$$$",
"$$$$$$$$$$$$$$$$$$$$$$$$$$$$$$$$",
"$$$$$$$$$$$$$$$$$$$$$$$$$$$$$$$$",
"-$$$$$$$$$$$$$$$$$$$$$$$$$$$$$$$"
};
