/* XPM */
static const char *Y2hpY2tlbl8x[] = {
/* columns rows colors chars-per-pixel */
"32 32 23 1 ",
"  c #073D17",
". c #160C20",
"X c #0A6323",
"o c #3D4F48",
"O c #3C5149",
"+ c #3B554B",
"@ c #3D544B",
"# c #355F4E",
"$ c #2F6550",
"% c #266E52",
"& c #2B6951",
"* c #464646",
"= c #434A47",
"- c #454947",
"; c #434B48",
": c #424C48",
"> c #40504A",
", c #872632",
"< c #C12D39",
"1 c #FDA038",
"2 c #FDC544",
"3 c #F8E5CF",
"4 c white",
/* pixels */
"**************+*****************",
"****+&*%*%***%&%***%+*%O*%&*****",
"**+o++=:O%%*%O%%%*%O+O++O++o+***",
"*%&&%+@%@::=%%%++O%%%&%+@%::%+*%",
"*%+%&%%%%%%&%++%%&%++%%%%%%%O***",
"**+:%%%%%%%%%%%%%%%%%%%%%%%&****",
"***+%%%%%%%%%%%%%%%%%%%%%%%&+***",
"**%%%%%%%%%%%%%%%%%%%%%%%%++&%*%",
"*%&%%%%%%%%%%%%%%%%%%%%%%%%&O***",
"O%%%%%%%%%%%%%%%%%%%%%%%%%%%****",
"&%@+%%%%%%%%%%...%%%%%%%%%%@%***",
"%%%%%%%%%%%%%.<<,.%%%%%%%%+%&***",
"&+%&%%%%%%%%..<,.%%%%%%%%%%%****",
"*%+%%%%%%%%.4444.%%.%.%%%%%&+***",
"**+&%%%%%%.144.4.%.3.4.%%%+%%%**",
"*%%%%%%%%%.114.43.3443.%%%%%O***",
"*&@%&%%%%%%..44444443.%%%%%&$%**",
"**%+%%%%%%%.43444.4333.%%%%++%%*",
"***@%%%%%%%.343..433..%%%%%+%+*O",
"**+%%%%%%%%%.34343..%%%%%%%%%***",
"**O%%%%%%%%  .....   %%%%%%%****",
"*%%%%%%%%%X .1.22.   X%%%%%&%***",
"$O+@%%%%%%X          X%%%%+%%&*%",
"*%+%%%%%%%%XXXXXXXXXX%%%%%%&++O%",
"**:&%%%&%%%%$&%&%&%%%%&%%%&&&+&%",
"*%%%&&%%%%$&%&%&%%%%&%%%%%&+%%%%",
"*&@%$&%+%$#&:@&>&+&&$%+%%$O%+*%O",
"**&+++%&%%:+%+%+%%%%+%%%%%+%***%",
"***++%%*%-+&**-*$*%;%&*%++&*****",
"**%%*%***%+********%+***%+&****+",
"*%&**********************:*****@",
"O%*******$&********&%***%&%***%%"
};
