/* XPM */
static const char *Y2hpY2tlbl8y[] = {
/* columns rows colors chars-per-pixel */
"32 32 24 1 ",
"  c #073D17",
". c #160C20",
"X c #0A6323",
"o c #3E4E48",
"O c #3D534A",
"+ c #3B554B",
"@ c #3D544B",
"# c #32614F",
"$ c #2E6550",
"% c #266E52",
"& c #2B6951",
"* c #464646",
"= c #424946",
"- c #454847",
"; c #434B48",
": c #424C48",
"> c #444C49",
", c #40514A",
"< c #872632",
"1 c #C12D39",
"2 c #FDA038",
"3 c #FDC544",
"4 c #F8E5CF",
"5 c white",
/* pixels */
"*******************%********O***",
"***&&******%********:******&****",
"**O&%+*%&*%&%*&&***%%+*+O*%O@***",
"-*@++OO++O%++=%%%*%&++O+OO:;&***",
"***::%&%+@%++&%::O%%%%&%+@%+****",
"****+%%%%%%%%%%%%&%++%%%%%%O****",
"***%%%%%%%%%%%%%%%%%%%%%%%+&&***",
"O*%#%%%%%%%%%%%%%%%%%%%%%%+&****",
"*O+%%%%%%%%%%%%%%%%%%%%%%%%&:***",
"**:+@%%%%%%%...%%%%%%%%%%%++%%*%",
"**%+%%%%%%%.11<.%%%%%%%%%%%%O***",
"***+%%%%%%..1<.%%%%%%%%%%%%&****",
"**%$%%%%%.5555.%%.%.%%%%%%%&+***",
"*+@$%%%%.255.5.%.4.5.%%%%%++&%*%",
"*%:&$%%%.225.54.4554.%%%%%%&O***",
"**--$%%%%..55555554.%%%%%%%%****",
"***-&%%%%.54555.5444.%%%%%%O&***",
"***-%%%%%.454..544..%%%%%%+%+***",
"***+%%%%%%.45454..%%%%%%%%%+****",
"**$%%%%%%%%.....%%%%%%%%%%%$&***",
"*%>:%%%%%  .3.22.  %%%%%%%+%****",
"o%::%%%%X .3. .2. XX%%%%%%%O+***",
"O%+@%%%%X          X%%%%%%+%%***",
"%%&%%%%%%X    XXXXX%&%%%%%%%****",
"*%+%&%%&%$&%%%%%%%&%%%%%%%%$%***",
"**++%$%$&%%%%%%%&&&%+%%&&%O&&O*+",
"***+&&$,&:O%$&&%%%+%%%&%%%%++:O%",
"***%++&:+%%%%&&%++%&*&O%@%+&+*&*",
"****++:*%**;+$O%%%%***++%%%%****",
"*****+******::%%*%*****+*%+*****",
"****%********+%***%***%***&+****",
"*%*%$%******%%*****+*%*****:%*%*"
};
