/* XPM */
static const char *Y2hpY2tlbl8z[] = {
/* columns rows colors chars-per-pixel */
"32 32 26 1 ",
"  c #073D17",
". c #160C20",
"X c #0A6323",
"o c #136833",
"O c #3E4E48",
"+ c #3B5047",
"@ c #3D534A",
"# c #3B554B",
"$ c #3D544B",
"% c #32624F",
"& c #2E6550",
"* c #266E52",
"= c #2B6951",
"- c gray28",
"; c #434A47",
": c #454947",
"> c #434A48",
", c #444B48",
"< c #424C48",
"1 c #444C49",
"2 c #872632",
"3 c #C12D39",
"4 c #FDA038",
"5 c #FDC544",
"6 c #F8E5CF",
"7 c white",
/* pixels */
"-----------#**--------#---*#---*",
"----------&**&&------*----------",
"--:------*=*<<<#----&&*---=*---*",
"-#$&=,-:-::<**<:---@#***-#=*=-*=",
"+*oo****=*##****&&1:::<#@**$$@#*",
"-*##********************=*###=*#",
"-**************************#**-*",
"--***************************---",
"-*-**...********************----",
"-***.332.******************&=---",
"-**..32.******************#*#*-*",
"-*.7777.**.*.**************###-*",
"-.477.7.*.6.7.***************---",
"-.447.76.6776.**************----",
"-*..77777776.**************=&---",
"-*.76777.7666.************#&%*-*",
"-*.676..766..**************=,#;*",
"-* .67676.. ***************<#*-*",
"-X .4.55.   X**************#*---",
"-X          X***************----",
"-*XX XXX X X***************&----",
"--************************<=&---",
"-*-***********************@*<,-*",
"-*-**********************&&&:$O&",
"---***=****=*****=***=**=*1%*<=*",
"-***=****=*****=***=**=**<=1-#<*",
"-=*&=*#*=&*#**&=*#===$=*@*<---*:",
"--**#****#*****#***#**#***-----:",
"-*@#=*-*<*=-*##=*-##*-*#-%#-----",
"--*#*---*#---*#*---*------&-----",
"---#-----------------------:---&",
"----*---=*---*=*------------>-<1"
};
